<svg width="176" height="46" viewBox="0 0 176 46" fill="none" xmlns="http://www.w3.org/2000/svg">
<g clip-path="url(#clip0_333_36)">
<path d="M20.5643 15.3326L19.0904 20.4757L27.5236 15.3037L22.0087 34.8167L27.6091 34.8219L35.7561 6.00003L20.5643 15.3326Z" fill="#429CFF"/>
<path d="M12.1715 26.6195L10 34.8218H20.7515C20.7515 34.8218 25.1491 18.1401 25.1506 18.1354C25.146 18.1375 12.1715 26.6195 12.1715 26.6195Z" fill="#1F2849"/>
<path d="M52.767 27.8402C53.2027 27.8402 53.5825 27.7872 53.9063 27.6813C54.2301 27.5694 54.498 27.4134 54.71 27.2132C54.9278 27.0071 55.0897 26.7599 55.1957 26.4714C55.3017 26.177 55.3546 25.8502 55.3546 25.4911C55.3546 25.1496 55.3017 24.8405 55.1957 24.5638C55.0897 24.2871 54.9307 24.0516 54.7188 23.8573C54.5068 23.663 54.2389 23.5158 53.9151 23.4157C53.5913 23.3097 53.2086 23.2567 52.767 23.2567H50.9919V27.8402H52.767ZM52.767 21.4198C53.6207 21.4198 54.3596 21.5199 54.9837 21.7201C55.6078 21.9203 56.123 22.1999 56.5292 22.5591C56.9355 22.9182 57.2357 23.348 57.43 23.8485C57.6302 24.3489 57.7303 24.8964 57.7303 25.4911C57.7303 26.1093 57.6273 26.6774 57.4212 27.1955C57.2151 27.7078 56.906 28.1493 56.4939 28.5203C56.0818 28.8912 55.5637 29.1797 54.9396 29.3857C54.3214 29.5918 53.5972 29.6948 52.767 29.6948H50.9919V34.19H48.6163V21.4198H52.767ZM63.7182 30.3219C63.0883 30.3513 62.5584 30.4072 62.1286 30.4897C61.6988 30.5662 61.3544 30.6663 61.0953 30.7899C60.8363 30.9136 60.6508 31.0578 60.5389 31.2227C60.4271 31.3875 60.3711 31.5671 60.3711 31.7614C60.3711 32.1441 60.483 32.4178 60.7067 32.5827C60.9364 32.7475 61.2337 32.83 61.5987 32.83C62.0462 32.83 62.4318 32.7505 62.7556 32.5915C63.0853 32.4267 63.4062 32.1794 63.7182 31.8497V30.3219ZM58.7197 26.3919C59.7618 25.4381 61.0158 24.9612 62.4818 24.9612C63.0117 24.9612 63.4857 25.0495 63.9037 25.2261C64.3217 25.3969 64.675 25.6383 64.9635 25.9503C65.252 26.2565 65.4698 26.6244 65.617 27.0542C65.7701 27.484 65.8466 27.955 65.8466 28.4673V34.19H64.8575C64.6514 34.19 64.4925 34.1606 64.3806 34.1017C64.2687 34.0369 64.1804 33.9103 64.1157 33.7219L63.9214 33.0684C63.6917 33.2745 63.468 33.457 63.2502 33.616C63.0323 33.769 62.8057 33.8986 62.5702 34.0045C62.3347 34.1105 62.0815 34.19 61.8107 34.243C61.5457 34.3019 61.2513 34.3313 60.9275 34.3313C60.5448 34.3313 60.1916 34.2813 59.8678 34.1812C59.5439 34.0752 59.2643 33.9192 59.0288 33.7131C58.7933 33.507 58.6108 33.2509 58.4812 32.9448C58.3517 32.6386 58.2869 32.2824 58.2869 31.8762C58.2869 31.6466 58.3252 31.4199 58.4017 31.1962C58.4783 30.9665 58.6019 30.7487 58.7727 30.5426C58.9493 30.3366 59.176 30.1423 59.4527 29.9598C59.7294 29.7773 60.0679 29.6183 60.4683 29.4829C60.8745 29.3475 61.3455 29.2385 61.8813 29.1561C62.4171 29.0678 63.0294 29.0148 63.7182 28.9971V28.4673C63.7182 27.8608 63.5887 27.4134 63.3297 27.1249C63.0706 26.8305 62.6967 26.6833 62.2081 26.6833C61.8548 26.6833 61.5604 26.7245 61.3249 26.807C61.0953 26.8894 60.8922 26.9836 60.7156 27.0896C60.5389 27.1897 60.377 27.2809 60.2298 27.3633C60.0885 27.4458 59.9296 27.487 59.7529 27.487C59.5999 27.487 59.4703 27.4487 59.3644 27.3722C59.2584 27.2897 59.173 27.1955 59.1083 27.0896L58.7197 26.3919ZM75.8731 25.129L70.9364 36.6805C70.8716 36.8335 70.7862 36.9483 70.6803 37.0249C70.5802 37.1073 70.4242 37.1485 70.2122 37.1485H68.5872L70.2829 33.51L66.6178 25.129H68.5342C68.705 25.129 68.8375 25.1702 68.9317 25.2526C69.0317 25.3351 69.1053 25.4293 69.1524 25.5352L71.0777 30.2335C71.1424 30.3925 71.1954 30.5515 71.2366 30.7104C71.2837 30.8694 71.3279 31.0313 71.3691 31.1962C71.4221 31.0313 71.4751 30.8694 71.5281 30.7104C71.5811 30.5456 71.6399 30.3837 71.7047 30.2247L73.524 25.5352C73.5711 25.4175 73.6476 25.3203 73.7536 25.2438C73.8655 25.1673 73.9891 25.129 74.1245 25.129H75.8731ZM82.9845 31.8409C83.2317 32.1411 83.4996 32.3531 83.7881 32.4767C84.0825 32.6004 84.3916 32.6622 84.7154 32.6622C85.051 32.6622 85.3513 32.6033 85.6162 32.4855C85.887 32.3619 86.1167 32.1735 86.3051 31.9203C86.4935 31.6613 86.6377 31.3345 86.7378 30.9401C86.8379 30.5397 86.8879 30.0628 86.8879 29.5094C86.8879 28.5144 86.7231 27.7961 86.3934 27.3545C86.0637 26.9071 85.5897 26.6833 84.9715 26.6833C84.5535 26.6833 84.1885 26.7805 83.8764 26.9748C83.5644 27.1632 83.2671 27.431 82.9845 27.7784V31.8409ZM82.9845 26.2418C83.3495 25.8591 83.7528 25.5559 84.1944 25.3321C84.6418 25.1025 85.1511 24.9877 85.7222 24.9877C86.2462 24.9877 86.7172 25.0907 87.1352 25.2968C87.5591 25.5029 87.9183 25.8002 88.2126 26.1888C88.5129 26.5715 88.7425 27.0366 88.9015 27.5841C89.0605 28.1317 89.1399 28.7469 89.1399 29.4299C89.1399 30.1658 89.0487 30.8341 88.8662 31.4346C88.6836 32.0351 88.4216 32.5503 88.0802 32.9801C87.7446 33.404 87.3383 33.7337 86.8614 33.9692C86.3845 34.2047 85.8547 34.3225 85.2718 34.3225C84.9892 34.3225 84.7331 34.293 84.5035 34.2342C84.2738 34.1812 84.0619 34.1046 83.8676 34.0045C83.6733 33.9045 83.4937 33.7838 83.3289 33.6425C83.1699 33.4953 83.0168 33.3334 82.8697 33.1567L82.7725 33.7661C82.7372 33.9192 82.6754 34.0281 82.587 34.0929C82.5046 34.1576 82.3898 34.19 82.2426 34.19H80.8031V21.0666H82.9845V26.2418ZM98.7968 25.129L93.86 36.6805C93.7953 36.8335 93.7099 36.9483 93.6039 37.0249C93.5038 37.1073 93.3478 37.1485 93.1359 37.1485H91.5109L93.2065 33.51L89.5415 25.129H91.4579C91.6286 25.129 91.7611 25.1702 91.8553 25.2526C91.9554 25.3351 92.029 25.4293 92.0761 25.5352L94.0013 30.2335C94.0661 30.3925 94.1191 30.5515 94.1603 30.7104C94.2074 30.8694 94.2516 31.0313 94.2928 31.1962C94.3458 31.0313 94.3987 30.8694 94.4517 30.7104C94.5047 30.5456 94.5636 30.3837 94.6284 30.2247L96.4476 25.5352C96.4947 25.4175 96.5713 25.3203 96.6772 25.2438C96.7891 25.1673 96.9127 25.129 97.0482 25.129H98.7968ZM107.93 27.4958C108.378 27.4958 108.767 27.4399 109.096 27.328C109.432 27.2162 109.706 27.0631 109.918 26.8688C110.135 26.6686 110.297 26.4331 110.403 26.1623C110.509 25.8914 110.562 25.5941 110.562 25.2703C110.562 24.6227 110.347 24.1252 109.918 23.7778C109.494 23.4304 108.843 23.2567 107.966 23.2567H106.447V27.4958H107.93ZM114.042 34.19H111.896C111.49 34.19 111.195 34.031 111.013 33.7131L108.328 29.6242C108.228 29.4711 108.116 29.3622 107.992 29.2974C107.875 29.2327 107.698 29.2003 107.462 29.2003H106.447V34.19H104.071V21.4198H107.966C108.831 21.4198 109.573 21.5111 110.191 21.6936C110.815 21.8702 111.325 22.1204 111.719 22.4443C112.12 22.7681 112.414 23.1567 112.602 23.61C112.791 24.0575 112.885 24.552 112.885 25.0937C112.885 25.5235 112.82 25.9297 112.691 26.3124C112.567 26.6951 112.384 27.0425 112.143 27.3545C111.908 27.6666 111.613 27.9403 111.26 28.1758C110.913 28.4113 110.515 28.5968 110.068 28.7322C110.221 28.8205 110.362 28.9265 110.492 29.0501C110.621 29.1679 110.739 29.3092 110.845 29.474L114.042 34.19ZM119.725 30.3219C119.095 30.3513 118.565 30.4072 118.135 30.4897C117.706 30.5662 117.361 30.6663 117.102 30.7899C116.843 30.9136 116.658 31.0578 116.546 31.2227C116.434 31.3875 116.378 31.5671 116.378 31.7614C116.378 32.1441 116.49 32.4178 116.714 32.5827C116.943 32.7475 117.241 32.83 117.606 32.83C118.053 32.83 118.439 32.7505 118.762 32.5915C119.092 32.4267 119.413 32.1794 119.725 31.8497V30.3219ZM114.727 26.3919C115.769 25.4381 117.023 24.9612 118.489 24.9612C119.019 24.9612 119.493 25.0495 119.911 25.2261C120.329 25.3969 120.682 25.6383 120.97 25.9503C121.259 26.2565 121.477 26.6244 121.624 27.0542C121.777 27.484 121.853 27.955 121.853 28.4673V34.19H120.864C120.658 34.19 120.499 34.1606 120.387 34.1017C120.276 34.0369 120.187 33.9103 120.122 33.7219L119.928 33.0684C119.699 33.2745 119.475 33.457 119.257 33.616C119.039 33.769 118.813 33.8986 118.577 34.0045C118.342 34.1105 118.088 34.19 117.818 34.243C117.553 34.3019 117.258 34.3313 116.934 34.3313C116.552 34.3313 116.198 34.2813 115.875 34.1812C115.551 34.0752 115.271 33.9192 115.036 33.7131C114.8 33.507 114.618 33.2509 114.488 32.9448C114.359 32.6386 114.294 32.2824 114.294 31.8762C114.294 31.6466 114.332 31.4199 114.409 31.1962C114.485 30.9665 114.609 30.7487 114.78 30.5426C114.956 30.3366 115.183 30.1423 115.46 29.9598C115.736 29.7773 116.075 29.6183 116.475 29.4829C116.881 29.3475 117.352 29.2385 117.888 29.1561C118.424 29.0678 119.036 29.0148 119.725 28.9971V28.4673C119.725 27.8608 119.596 27.4134 119.337 27.1249C119.077 26.8305 118.704 26.6833 118.215 26.6833C117.862 26.6833 117.567 26.7245 117.332 26.807C117.102 26.8894 116.899 26.9836 116.722 27.0896C116.546 27.1897 116.384 27.2809 116.237 27.3633C116.095 27.4458 115.936 27.487 115.76 27.487C115.607 27.487 115.477 27.4487 115.371 27.3722C115.265 27.2897 115.18 27.1955 115.115 27.0896L114.727 26.3919ZM130.417 26.0298C130.417 26.1829 130.39 26.333 130.337 26.4802C130.284 26.6274 130.213 26.7481 130.125 26.8423L125.824 32.512H130.284V34.19H123.29V33.2804C123.29 33.1803 123.313 33.0625 123.36 32.9271C123.407 32.7858 123.478 32.6533 123.572 32.5297L127.917 26.7981H123.546V25.129H130.417V26.0298ZM135.886 24.9877C136.557 24.9877 137.167 25.0966 137.714 25.3145C138.268 25.5323 138.739 25.8414 139.127 26.2418C139.522 26.6421 139.825 27.1308 140.037 27.7078C140.249 28.2847 140.355 28.9294 140.355 29.6418C140.355 30.3601 140.249 31.0078 140.037 31.5847C139.825 32.1617 139.522 32.6533 139.127 33.0596C138.739 33.4658 138.268 33.7779 137.714 33.9957C137.167 34.2136 136.557 34.3225 135.886 34.3225C135.209 34.3225 134.594 34.2136 134.04 33.9957C133.487 33.7779 133.013 33.4658 132.619 33.0596C132.23 32.6533 131.927 32.1617 131.709 31.5847C131.497 31.0078 131.391 30.3601 131.391 29.6418C131.391 28.9294 131.497 28.2847 131.709 27.7078C131.927 27.1308 132.23 26.6421 132.619 26.2418C133.013 25.8414 133.487 25.5323 134.04 25.3145C134.594 25.0966 135.209 24.9877 135.886 24.9877ZM135.886 32.6445C136.64 32.6445 137.196 32.3913 137.555 31.885C137.92 31.3787 138.103 30.6368 138.103 29.6595C138.103 28.6822 137.92 27.9374 137.555 27.4252C137.196 26.9129 136.64 26.6568 135.886 26.6568C135.121 26.6568 134.553 26.9159 134.182 27.434C133.817 27.9462 133.634 28.688 133.634 29.6595C133.634 30.631 133.817 31.3728 134.182 31.885C134.553 32.3913 135.121 32.6445 135.886 32.6445ZM144.077 26.701C144.359 26.1593 144.695 25.7354 145.084 25.4293C145.472 25.1172 145.931 24.9612 146.461 24.9612C146.879 24.9612 147.215 25.0525 147.468 25.235L147.327 26.8688C147.297 26.9748 147.253 27.0513 147.194 27.0984C147.141 27.1396 147.068 27.1602 146.973 27.1602C146.885 27.1602 146.753 27.1455 146.576 27.1161C146.405 27.0866 146.238 27.0719 146.073 27.0719C145.831 27.0719 145.616 27.1072 145.428 27.1779C145.24 27.2485 145.069 27.3516 144.916 27.487C144.769 27.6165 144.636 27.7755 144.518 27.9639C144.407 28.1523 144.301 28.3672 144.2 28.6086V34.19H142.019V25.129H143.3C143.523 25.129 143.679 25.1702 143.768 25.2526C143.856 25.3292 143.915 25.4705 143.944 25.6765L144.077 26.701ZM150.789 31.8409C151.037 32.1411 151.305 32.3531 151.593 32.4767C151.888 32.6004 152.205 32.6622 152.547 32.6622C152.877 32.6622 153.174 32.6004 153.439 32.4767C153.704 32.3531 153.928 32.1647 154.11 31.9115C154.298 31.6583 154.443 31.3404 154.543 30.9577C154.643 30.5691 154.693 30.1128 154.693 29.5889C154.693 29.059 154.649 28.6115 154.56 28.2465C154.478 27.8756 154.357 27.5753 154.198 27.3457C154.039 27.1161 153.845 26.9483 153.616 26.8423C153.392 26.7363 153.136 26.6833 152.847 26.6833C152.394 26.6833 152.008 26.7805 151.69 26.9748C151.372 27.1632 151.072 27.431 150.789 27.7784V31.8409ZM150.675 26.3654C151.046 25.9474 151.467 25.6088 151.938 25.3498C152.409 25.0907 152.962 24.9612 153.598 24.9612C154.092 24.9612 154.543 25.0642 154.949 25.2703C155.361 25.4764 155.714 25.7766 156.009 26.1711C156.309 26.5597 156.539 27.0425 156.698 27.6195C156.863 28.1905 156.945 28.847 156.945 29.5889C156.945 30.2659 156.854 30.893 156.671 31.4699C156.489 32.0469 156.227 32.5474 155.885 32.9713C155.55 33.3952 155.14 33.7278 154.658 33.9692C154.181 34.2047 153.645 34.3225 153.05 34.3225C152.544 34.3225 152.111 34.2459 151.752 34.0929C151.393 33.9339 151.072 33.7161 150.789 33.4393V37.1485H148.608V25.129H149.942C150.224 25.129 150.41 25.2615 150.498 25.5264L150.675 26.3654ZM163.434 30.3219C162.804 30.3513 162.274 30.4072 161.844 30.4897C161.414 30.5662 161.07 30.6663 160.811 30.7899C160.552 30.9136 160.366 31.0578 160.254 31.2227C160.142 31.3875 160.086 31.5671 160.086 31.7614C160.086 32.1441 160.198 32.4178 160.422 32.5827C160.652 32.7475 160.949 32.83 161.314 32.83C161.761 32.83 162.147 32.7505 162.471 32.5915C162.801 32.4267 163.122 32.1794 163.434 31.8497V30.3219ZM158.435 26.3919C159.477 25.4381 160.731 24.9612 162.197 24.9612C162.727 24.9612 163.201 25.0495 163.619 25.2261C164.037 25.3969 164.39 25.6383 164.679 25.9503C164.967 26.2565 165.185 26.6244 165.332 27.0542C165.485 27.484 165.562 27.955 165.562 28.4673V34.19H164.573C164.367 34.19 164.208 34.1606 164.096 34.1017C163.984 34.0369 163.896 33.9103 163.831 33.7219L163.637 33.0684C163.407 33.2745 163.183 33.457 162.965 33.616C162.748 33.769 162.521 33.8986 162.285 34.0045C162.05 34.1105 161.797 34.19 161.526 34.243C161.261 34.3019 160.967 34.3313 160.643 34.3313C160.26 34.3313 159.907 34.2813 159.583 34.1812C159.259 34.0752 158.98 33.9192 158.744 33.7131C158.509 33.507 158.326 33.2509 158.197 32.9448C158.067 32.6386 158.002 32.2824 158.002 31.8762C158.002 31.6466 158.041 31.4199 158.117 31.1962C158.194 30.9665 158.317 30.7487 158.488 30.5426C158.665 30.3366 158.891 30.1423 159.168 29.9598C159.445 29.7773 159.783 29.6183 160.184 29.4829C160.59 29.3475 161.061 29.2385 161.597 29.1561C162.132 29.0678 162.745 29.0148 163.434 28.9971V28.4673C163.434 27.8608 163.304 27.4134 163.045 27.1249C162.786 26.8305 162.412 26.6833 161.923 26.6833C161.57 26.6833 161.276 26.7245 161.04 26.807C160.811 26.8894 160.608 26.9836 160.431 27.0896C160.254 27.1897 160.092 27.2809 159.945 27.3633C159.804 27.4458 159.645 27.487 159.468 27.487C159.315 27.487 159.186 27.4487 159.08 27.3722C158.974 27.2897 158.888 27.1955 158.824 27.0896L158.435 26.3919ZM175.588 25.129L170.652 36.6805C170.587 36.8335 170.502 36.9483 170.396 37.0249C170.295 37.1073 170.139 37.1485 169.928 37.1485H168.303L169.998 33.51L166.333 25.129H168.25C168.42 25.129 168.553 25.1702 168.647 25.2526C168.747 25.3351 168.821 25.4293 168.868 25.5352L170.793 30.2335C170.858 30.3925 170.911 30.5515 170.952 30.7104C170.999 30.8694 171.043 31.0313 171.084 31.1962C171.137 31.0313 171.19 30.8694 171.243 30.7104C171.296 30.5456 171.355 30.3837 171.42 30.2247L173.239 25.5352C173.286 25.4175 173.363 25.3203 173.469 25.2438C173.581 25.1673 173.704 25.129 173.84 25.129H175.588Z" fill="#333333"/>
</g>
<defs>
<clipPath id="clip0_333_36">
<rect width="176" height="46" fill="white"/>
</clipPath>
</defs>
</svg>
